<?xml version="1.0" encoding="utf-8"?>

<!DOCTYPE svg PUBLIC "-//W3C//DTD SVG 1.1//EN" "http://www.w3.org/Graphics/SVG/1.1/DTD/svg11.dtd">
<!-- Uploaded to: SVG Repo, www.svgrepo.com, Generator: SVG Repo Mixer Tools -->
<svg height="800px" width="800px" version="1.1" id="_x32_" xmlns="http://www.w3.org/2000/svg" xmlns:xlink="http://www.w3.org/1999/xlink" 
	 viewBox="0 0 512 512"  xml:space="preserve">
<style type="text/css">
	.st0{fill:#000000;}
</style>
<g>
	<path class="st0" d="M256,47.18C127.063,47.18,0,97.628,0,155.555c0,49.742,0,54.334,0,54.644c0,13.168,10.67,23.838,23.838,23.838
		h90.602c13.168,0,23.837-10.67,23.837-23.838v-41.116c0-12,8.93-22.132,20.83-23.647c0,0,32.619-6.7,96.893-6.7
		s96.892,6.7,96.892,6.7c11.901,1.514,20.83,11.647,20.83,23.647V210.2c0,13.168,10.67,23.838,23.837,23.838h90.602
		c13.168,0,23.838-10.67,23.838-23.838c0-0.311,0-4.903,0-54.644C512,97.628,384.938,47.18,256,47.18z"/>
	<path class="st0" d="M348.499,210.2v-39.913l-0.687-0.142c-0.247-0.049-31.55-6.184-91.812-6.184
		c-60.262,0-91.564,6.134-91.876,6.198l-0.622,0.127V210.2c0,27.057-22.012,49.062-49.062,49.062H51.39v141.992
		c0,35.109,28.458,63.566,63.56,63.566H397.05c35.102,0,63.56-28.458,63.56-63.566V259.262h-63.05
		C370.51,259.262,348.499,237.257,348.499,210.2z M331.057,368.105v33.92h-33.913v-33.92H331.057z M331.057,314.465v33.921h-33.913
		v-33.921H331.057z M331.057,260.833v33.913h-33.913v-33.913H331.057z M272.96,368.105v33.92h-33.913v-33.92H272.96z
		 M272.96,314.465v33.921h-33.913v-33.921H272.96z M239.047,294.746v-33.913h33.913v33.913H239.047z M214.863,368.105v33.92H180.95
		v-33.92H214.863z M214.863,314.465v33.921H180.95v-33.921H214.863z M214.863,260.833v33.913H180.95v-33.913H214.863z"/>
</g>
</svg>